<svg xmlns="http://www.w3.org/2000/svg" xmlns:xlink="http://www.w3.org/1999/xlink" width="500" zoomAndPan="magnify" viewBox="0 0 375 149.999998" height="200" preserveAspectRatio="xMidYMid meet" version="1.0"><defs><g/><clipPath id="74131f6f63"><path d="M 36 9.289062 L 120 9.289062 L 120 140.539062 L 36 140.539062 Z M 36 9.289062 " clip-rule="nonzero"/></clipPath></defs><g clip-path="url(#74131f6f63)"><path fill="#ffffff" d="M 112.210938 87.953125 C 111.128906 87.238281 110.152344 86.40625 109.277344 85.453125 C 108.402344 84.5 107.660156 83.453125 107.046875 82.316406 C 106.433594 81.175781 105.972656 79.980469 105.65625 78.730469 C 105.34375 77.476562 105.1875 76.203125 105.191406 74.914062 L 105.191406 67.65625 C 105.933594 67.726562 106.679688 67.730469 107.425781 67.675781 C 108.171875 67.617188 108.90625 67.5 109.632812 67.320312 C 110.359375 67.140625 111.0625 66.902344 111.75 66.605469 C 112.433594 66.308594 113.089844 65.957031 113.714844 65.546875 C 114.339844 65.140625 114.929688 64.683594 115.476562 64.179688 C 116.027344 63.671875 116.527344 63.125 116.984375 62.535156 C 117.441406 61.945312 117.84375 61.320312 118.195312 60.664062 C 118.546875 60.007812 118.839844 59.324219 119.074219 58.617188 C 119.308594 57.910156 119.484375 57.191406 119.597656 56.453125 C 119.710938 55.71875 119.761719 54.976562 119.75 54.234375 C 119.742188 53.488281 119.667969 52.75 119.53125 52.019531 C 119.394531 51.285156 119.199219 50.570312 118.941406 49.871094 C 118.683594 49.171875 118.371094 48.5 118 47.851562 C 117.628906 47.207031 117.207031 46.59375 116.734375 46.019531 C 116.261719 45.441406 115.742188 44.910156 115.179688 44.421875 C 114.613281 43.929688 114.015625 43.492188 113.375 43.105469 C 114.378906 41.675781 115.183594 40.144531 115.785156 38.511719 C 116.390625 36.878906 116.777344 35.195312 116.945312 33.460938 C 117.113281 31.726562 117.058594 30.003906 116.777344 28.28125 C 116.5 26.5625 116.003906 24.910156 115.296875 23.316406 L 109.855469 11.222656 C 109.703125 10.78125 109.445312 10.414062 109.082031 10.121094 C 108.71875 9.828125 108.304688 9.65625 107.839844 9.601562 C 107.394531 9.5625 106.976562 9.636719 106.574219 9.828125 C 106.175781 10.019531 105.851562 10.296875 105.605469 10.664062 L 102.761719 14.996094 C 99.582031 19.78125 97.445312 24.988281 96.347656 30.621094 C 94.164062 29.523438 91.851562 28.964844 89.402344 28.953125 C 87.363281 28.957031 85.398438 29.34375 83.511719 30.105469 C 81.621094 30.863281 79.941406 31.949219 78.472656 33.355469 C 77.003906 31.949219 75.324219 30.863281 73.433594 30.105469 C 71.542969 29.34375 69.578125 28.957031 67.542969 28.953125 C 65.113281 28.96875 62.816406 29.515625 60.644531 30.597656 C 59.53125 24.960938 57.378906 19.753906 54.183594 14.972656 L 51.339844 10.664062 C 51.09375 10.296875 50.769531 10.019531 50.371094 9.828125 C 49.96875 9.636719 49.546875 9.5625 49.105469 9.601562 C 48.664062 9.636719 48.261719 9.785156 47.902344 10.039062 C 47.539062 10.296875 47.269531 10.625 47.089844 11.027344 L 41.648438 23.125 C 40.941406 24.714844 40.445312 26.371094 40.164062 28.089844 C 39.886719 29.808594 39.832031 31.535156 40 33.269531 C 40.167969 35 40.554688 36.683594 41.15625 38.320312 C 41.761719 39.953125 42.566406 41.484375 43.566406 42.910156 C 42.902344 43.285156 42.269531 43.714844 41.675781 44.199219 C 41.085938 44.679688 40.539062 45.210938 40.035156 45.789062 C 39.535156 46.363281 39.085938 46.980469 38.691406 47.632812 C 38.296875 48.289062 37.960938 48.96875 37.6875 49.679688 C 37.410156 50.394531 37.195312 51.121094 37.046875 51.871094 C 36.894531 52.617188 36.808594 53.375 36.789062 54.136719 C 36.769531 54.898438 36.816406 55.65625 36.929688 56.414062 C 37.039062 57.167969 37.214844 57.90625 37.457031 58.632812 C 37.695312 59.355469 37.996094 60.054688 38.355469 60.726562 C 38.714844 61.402344 39.132812 62.039062 39.601562 62.640625 C 40.074219 63.242188 40.59375 63.796875 41.160156 64.3125 C 41.726562 64.824219 42.335938 65.285156 42.980469 65.691406 C 43.628906 66.101562 44.304688 66.453125 45.015625 66.742188 C 45.722656 67.035156 46.449219 67.265625 47.195312 67.433594 C 47.945312 67.601562 48.699219 67.703125 49.464844 67.738281 C 50.230469 67.777344 50.992188 67.75 51.753906 67.65625 L 51.753906 74.914062 C 51.753906 76.203125 51.597656 77.476562 51.28125 78.726562 C 50.964844 79.980469 50.5 81.171875 49.886719 82.3125 C 49.277344 83.449219 48.535156 84.492188 47.660156 85.449219 C 46.789062 86.402344 45.8125 87.238281 44.734375 87.953125 C 42.382812 89.53125 40.539062 91.5625 39.195312 94.046875 C 37.847656 96.539062 37.175781 99.199219 37.179688 102.03125 L 37.179688 103.941406 C 37.179688 104.496094 37.207031 105.046875 37.261719 105.601562 C 37.316406 106.152344 37.398438 106.699219 37.507812 107.246094 C 37.613281 107.789062 37.75 108.324219 37.910156 108.855469 C 38.074219 109.386719 38.261719 109.910156 38.472656 110.421875 C 38.6875 110.933594 38.925781 111.433594 39.1875 111.921875 C 39.449219 112.410156 39.734375 112.886719 40.046875 113.347656 C 40.355469 113.808594 40.6875 114.253906 41.039062 114.683594 C 41.390625 115.113281 41.765625 115.523438 42.160156 115.914062 C 42.554688 116.304688 42.964844 116.679688 43.394531 117.03125 C 43.828125 117.382812 44.273438 117.710938 44.734375 118.019531 C 45.199219 118.328125 45.675781 118.613281 46.167969 118.875 C 46.660156 119.136719 47.160156 119.371094 47.675781 119.585938 C 48.191406 119.796875 48.714844 119.984375 49.246094 120.144531 C 49.78125 120.304688 50.320312 120.441406 50.867188 120.546875 C 51.410156 120.65625 51.960938 120.738281 52.515625 120.792969 C 53.070312 120.847656 53.625 120.875 54.183594 120.875 C 54.820312 120.875 55.453125 120.9375 56.078125 121.058594 C 56.703125 121.183594 57.3125 121.367188 57.902344 121.609375 C 58.488281 121.851562 59.050781 122.152344 59.582031 122.503906 C 60.109375 122.855469 60.601562 123.257812 61.050781 123.707031 C 61.503906 124.15625 61.90625 124.644531 62.261719 125.175781 C 62.613281 125.703125 62.914062 126.257812 63.160156 126.847656 C 63.402344 127.433594 63.585938 128.039062 63.710938 128.660156 C 63.835938 129.285156 63.898438 129.914062 63.898438 130.550781 C 63.898438 131.183594 63.960938 131.8125 64.085938 132.4375 C 64.210938 133.058594 64.394531 133.664062 64.636719 134.253906 C 64.882812 134.839844 65.179688 135.398438 65.535156 135.925781 C 65.890625 136.453125 66.292969 136.941406 66.742188 137.390625 C 67.195312 137.839844 67.6875 138.242188 68.214844 138.59375 C 68.746094 138.949219 69.304688 139.246094 69.894531 139.488281 C 70.484375 139.730469 71.09375 139.914062 71.71875 140.039062 C 72.34375 140.164062 72.976562 140.226562 73.613281 140.226562 L 83.328125 140.226562 C 83.96875 140.226562 84.601562 140.164062 85.226562 140.039062 C 85.851562 139.914062 86.457031 139.730469 87.046875 139.488281 C 87.636719 139.246094 88.199219 138.949219 88.726562 138.59375 C 89.257812 138.242188 89.75 137.839844 90.199219 137.390625 C 90.652344 136.941406 91.054688 136.453125 91.410156 135.925781 C 91.761719 135.398438 92.0625 134.839844 92.304688 134.253906 C 92.550781 133.664062 92.734375 133.058594 92.859375 132.4375 C 92.984375 131.8125 93.046875 131.183594 93.046875 130.550781 C 93.046875 129.914062 93.109375 129.285156 93.234375 128.660156 C 93.355469 128.039062 93.542969 127.433594 93.785156 126.847656 C 94.03125 126.257812 94.328125 125.703125 94.683594 125.175781 C 95.039062 124.644531 95.441406 124.15625 95.890625 123.707031 C 96.34375 123.257812 96.832031 122.855469 97.363281 122.503906 C 97.894531 122.152344 98.453125 121.851562 99.042969 121.609375 C 99.632812 121.367188 100.242188 121.183594 100.867188 121.058594 C 101.492188 120.9375 102.125 120.875 102.761719 120.875 C 103.320312 120.875 103.875 120.847656 104.429688 120.792969 C 104.984375 120.738281 105.53125 120.65625 106.078125 120.546875 C 106.625 120.441406 107.164062 120.304688 107.699219 120.144531 C 108.230469 119.984375 108.753906 119.796875 109.269531 119.585938 C 109.78125 119.371094 110.285156 119.136719 110.777344 118.875 C 111.269531 118.613281 111.746094 118.328125 112.207031 118.019531 C 112.671875 117.710938 113.117188 117.382812 113.546875 117.03125 C 113.980469 116.679688 114.390625 116.304688 114.785156 115.914062 C 115.179688 115.523438 115.550781 115.113281 115.90625 114.683594 C 116.257812 114.253906 116.589844 113.808594 116.898438 113.347656 C 117.207031 112.886719 117.496094 112.410156 117.757812 111.921875 C 118.019531 111.433594 118.257812 110.933594 118.46875 110.421875 C 118.683594 109.910156 118.871094 109.386719 119.03125 108.855469 C 119.195312 108.324219 119.328125 107.789062 119.4375 107.246094 C 119.546875 106.699219 119.628906 106.152344 119.683594 105.601562 C 119.738281 105.046875 119.765625 104.496094 119.765625 103.941406 L 119.765625 102.03125 C 119.765625 100.636719 119.59375 99.265625 119.253906 97.917969 C 118.914062 96.566406 118.417969 95.277344 117.757812 94.046875 C 117.097656 92.820312 116.300781 91.691406 115.363281 90.660156 C 114.421875 89.628906 113.371094 88.726562 112.210938 87.953125 Z M 106.746094 17.679688 L 107.183594 17.027344 L 110.824219 25.226562 C 111.382812 26.480469 111.769531 27.78125 111.976562 29.132812 C 112.1875 30.488281 112.214844 31.84375 112.0625 33.203125 C 111.90625 34.566406 111.578125 35.882812 111.070312 37.15625 C 110.566406 38.429688 109.902344 39.613281 109.078125 40.710938 L 108.664062 41.242188 L 108.542969 41.242188 C 107.851562 41.128906 107.15625 41.070312 106.453125 41.070312 C 105.925781 41.039062 105.402344 41.039062 104.875 41.070312 C 104.695312 40.3125 104.460938 39.570312 104.171875 38.847656 C 104.171875 38.605469 103.953125 38.363281 103.832031 38.121094 C 103.710938 37.878906 103.417969 37.203125 103.152344 36.765625 C 102.882812 36.332031 102.808594 36.210938 102.617188 35.945312 C 102.421875 35.679688 102.105469 35.195312 101.839844 34.855469 L 101.183594 34.082031 L 100.769531 33.597656 C 101.554688 27.839844 103.542969 22.535156 106.746094 17.679688 Z M 46.019531 25.226562 L 49.664062 17.027344 L 50.101562 17.679688 C 53.402344 22.578125 55.457031 27.949219 56.269531 33.789062 L 55.835938 34.300781 L 55.226562 35 C 54.910156 35.386719 54.644531 35.773438 54.375 36.1875 C 54.109375 36.597656 54.035156 36.667969 53.890625 36.9375 C 53.632812 37.390625 53.398438 37.859375 53.1875 38.339844 C 53.1875 38.554688 52.96875 38.773438 52.871094 39.015625 C 52.582031 39.742188 52.34375 40.480469 52.167969 41.242188 C 51.566406 41.199219 50.96875 41.199219 50.367188 41.242188 L 49.957031 41.242188 C 49.449219 41.261719 48.949219 41.308594 48.449219 41.386719 L 48.253906 41.386719 L 47.84375 40.855469 C 47.007812 39.75 46.332031 38.554688 45.816406 37.269531 C 45.304688 35.984375 44.96875 34.65625 44.816406 33.28125 C 44.664062 31.90625 44.695312 30.535156 44.910156 29.167969 C 45.128906 27.800781 45.523438 26.488281 46.09375 25.226562 Z M 50.539062 62.820312 C 50.035156 62.820312 49.535156 62.777344 49.035156 62.691406 C 48.539062 62.605469 48.054688 62.472656 47.578125 62.300781 C 47.105469 62.128906 46.652344 61.914062 46.214844 61.660156 C 45.78125 61.40625 45.371094 61.117188 44.984375 60.792969 C 44.601562 60.464844 44.25 60.109375 43.929688 59.71875 C 43.609375 59.332031 43.328125 58.917969 43.082031 58.476562 C 42.835938 58.039062 42.628906 57.582031 42.464844 57.105469 C 42.300781 56.632812 42.179688 56.144531 42.105469 55.648438 C 42.027344 55.152344 41.992188 54.652344 42.007812 54.148438 C 42.019531 53.648438 42.074219 53.148438 42.175781 52.65625 C 42.277344 52.164062 42.421875 51.6875 42.605469 51.21875 C 42.792969 50.75 43.019531 50.304688 43.289062 49.878906 C 43.554688 49.453125 43.855469 49.050781 44.195312 48.679688 C 44.53125 48.304688 44.902344 47.964844 45.300781 47.65625 C 45.699219 47.351562 46.125 47.078125 46.570312 46.847656 C 47.019531 46.613281 47.484375 46.421875 47.964844 46.273438 C 49.785156 45.703125 51.59375 45.75 53.378906 46.417969 C 53.648438 46.515625 53.921875 46.5625 54.207031 46.5625 L 54.621094 46.5625 C 54.960938 46.507812 55.277344 46.386719 55.566406 46.199219 C 55.886719 45.984375 56.140625 45.707031 56.332031 45.371094 C 56.519531 45.035156 56.621094 44.675781 56.636719 44.289062 C 56.695312 42.785156 57.054688 41.355469 57.714844 40 C 58.371094 38.644531 59.277344 37.480469 60.425781 36.5 C 61.402344 35.628906 62.507812 34.960938 63.734375 34.496094 C 64.960938 34.027344 66.230469 33.792969 67.542969 33.789062 C 68.417969 33.796875 69.28125 33.902344 70.132812 34.113281 C 70.984375 34.324219 71.800781 34.628906 72.578125 35.035156 C 73.355469 35.4375 74.074219 35.925781 74.734375 36.503906 C 75.390625 37.078125 75.976562 37.722656 76.480469 38.433594 C 76.59375 38.59375 76.722656 38.734375 76.867188 38.859375 C 77.015625 38.988281 77.175781 39.09375 77.347656 39.183594 C 77.519531 39.273438 77.699219 39.339844 77.886719 39.382812 C 78.074219 39.429688 78.265625 39.453125 78.460938 39.453125 C 78.652344 39.453125 78.84375 39.429688 79.03125 39.382812 C 79.222656 39.339844 79.402344 39.273438 79.574219 39.183594 C 79.746094 39.09375 79.90625 38.988281 80.050781 38.859375 C 80.199219 38.734375 80.328125 38.59375 80.441406 38.433594 C 80.945312 37.71875 81.53125 37.074219 82.191406 36.5 C 82.855469 35.921875 83.574219 35.433594 84.355469 35.027344 C 85.132812 34.625 85.949219 34.316406 86.804688 34.109375 C 87.65625 33.898438 88.523438 33.792969 89.402344 33.789062 C 90.101562 33.792969 90.792969 33.863281 91.476562 34 C 92.164062 34.132812 92.828125 34.332031 93.476562 34.59375 C 94.125 34.855469 94.742188 35.175781 95.328125 35.554688 C 95.914062 35.933594 96.457031 36.363281 96.960938 36.84375 C 97.464844 37.324219 97.917969 37.851562 98.324219 38.417969 C 98.726562 38.984375 99.074219 39.585938 99.359375 40.21875 C 99.648438 40.851562 99.875 41.507812 100.039062 42.183594 C 100.203125 42.859375 100.300781 43.546875 100.332031 44.242188 C 100.34375 44.515625 100.402344 44.78125 100.507812 45.039062 C 100.613281 45.292969 100.753906 45.523438 100.9375 45.730469 C 101.121094 45.9375 101.335938 46.109375 101.578125 46.242188 C 101.820312 46.378906 102.074219 46.46875 102.347656 46.515625 L 102.761719 46.515625 C 103.046875 46.515625 103.320312 46.464844 103.585938 46.371094 C 104.890625 45.875 106.234375 45.714844 107.621094 45.886719 C 108.054688 45.949219 108.484375 46.046875 108.90625 46.175781 C 109.40625 46.308594 109.894531 46.484375 110.363281 46.707031 C 110.828125 46.925781 111.273438 47.1875 111.695312 47.492188 C 112.117188 47.792969 112.503906 48.128906 112.863281 48.503906 C 113.222656 48.875 113.542969 49.277344 113.828125 49.710938 C 114.113281 50.140625 114.355469 50.59375 114.558594 51.070312 C 114.757812 51.546875 114.914062 52.035156 115.027344 52.542969 C 115.136719 53.046875 115.203125 53.554688 115.21875 54.070312 C 115.234375 54.585938 115.207031 55.101562 115.128906 55.613281 C 115.054688 56.121094 114.929688 56.621094 114.761719 57.109375 C 114.59375 57.597656 114.382812 58.066406 114.128906 58.515625 C 113.871094 58.964844 113.578125 59.390625 113.246094 59.785156 C 112.914062 60.183594 112.546875 60.542969 112.148438 60.875 C 111.75 61.203125 111.324219 61.496094 110.871094 61.746094 C 110.421875 62 109.949219 62.207031 109.457031 62.375 C 108.964844 62.539062 108.464844 62.660156 107.953125 62.734375 C 107.4375 62.808594 106.921875 62.835938 106.40625 62.820312 C 105.425781 62.804688 104.480469 62.628906 103.5625 62.285156 C 103.183594 62.160156 102.796875 62.128906 102.402344 62.191406 C 102.003906 62.257812 101.648438 62.410156 101.328125 62.648438 C 101 62.890625 100.742188 63.191406 100.558594 63.550781 C 100.375 63.914062 100.285156 64.300781 100.285156 64.707031 C 100.277344 64.808594 100.277344 64.914062 100.285156 65.019531 C 100.226562 65.691406 100.109375 66.351562 99.929688 67.003906 C 99.75 67.652344 99.507812 68.28125 99.210938 68.886719 C 98.910156 69.492188 98.558594 70.0625 98.152344 70.601562 C 97.746094 71.140625 97.292969 71.636719 96.792969 72.09375 C 96.292969 72.546875 95.753906 72.953125 95.179688 73.304688 C 94.601562 73.660156 93.996094 73.957031 93.367188 74.199219 C 92.734375 74.441406 92.082031 74.621094 91.417969 74.742188 C 90.75 74.859375 90.078125 74.917969 89.402344 74.914062 C 88.527344 74.910156 87.660156 74.800781 86.808594 74.589844 C 85.960938 74.382812 85.144531 74.074219 84.367188 73.671875 C 83.589844 73.265625 82.871094 72.777344 82.210938 72.203125 C 81.550781 71.628906 80.96875 70.984375 80.464844 70.269531 C 80.351562 70.113281 80.222656 69.96875 80.074219 69.84375 C 79.929688 69.71875 79.769531 69.609375 79.597656 69.519531 C 79.425781 69.433594 79.246094 69.367188 79.058594 69.320312 C 78.867188 69.273438 78.679688 69.25 78.484375 69.25 C 78.289062 69.25 78.097656 69.273438 77.910156 69.320312 C 77.722656 69.367188 77.542969 69.433594 77.371094 69.519531 C 77.199219 69.609375 77.039062 69.71875 76.894531 69.84375 C 76.746094 69.96875 76.617188 70.113281 76.503906 70.269531 C 76 70.984375 75.414062 71.628906 74.753906 72.207031 C 74.089844 72.78125 73.371094 73.273438 72.589844 73.675781 C 71.808594 74.082031 70.992188 74.386719 70.140625 74.597656 C 69.285156 74.804688 68.421875 74.910156 67.542969 74.914062 C 66.863281 74.921875 66.1875 74.867188 65.519531 74.75 C 64.851562 74.632812 64.199219 74.453125 63.5625 74.210938 C 62.929688 73.972656 62.320312 73.675781 61.742188 73.320312 C 61.164062 72.96875 60.625 72.5625 60.121094 72.109375 C 59.617188 71.65625 59.164062 71.15625 58.753906 70.617188 C 58.34375 70.078125 57.992188 69.503906 57.691406 68.894531 C 57.390625 68.289062 57.148438 67.660156 56.96875 67.007812 C 56.785156 66.355469 56.667969 65.695312 56.609375 65.019531 C 56.609375 65.019531 56.609375 64.65625 56.609375 64.558594 C 56.609375 64.367188 56.589844 64.175781 56.542969 63.984375 C 56.496094 63.796875 56.425781 63.617188 56.335938 63.445312 C 56.246094 63.273438 56.136719 63.113281 56.007812 62.96875 C 55.882812 62.820312 55.738281 62.691406 55.578125 62.582031 C 55.417969 62.46875 55.246094 62.378906 55.066406 62.308594 C 54.882812 62.238281 54.695312 62.1875 54.503906 62.164062 C 54.308594 62.136719 54.117188 62.136719 53.921875 62.15625 C 53.726562 62.175781 53.539062 62.21875 53.355469 62.285156 C 52.449219 62.625 51.507812 62.804688 50.539062 62.820312 Z M 114.90625 103.941406 C 114.90625 104.734375 114.828125 105.523438 114.671875 106.300781 C 114.519531 107.078125 114.289062 107.835938 113.980469 108.570312 C 113.675781 109.304688 113.304688 110 112.859375 110.660156 C 112.417969 111.320312 111.914062 111.929688 111.347656 112.492188 C 110.785156 113.054688 110.171875 113.554688 109.507812 113.996094 C 108.847656 114.4375 108.144531 114.8125 107.410156 115.113281 C 106.671875 115.417969 105.914062 115.648438 105.132812 115.804688 C 104.347656 115.957031 103.558594 116.035156 102.761719 116.035156 C 101.804688 116.035156 100.855469 116.128906 99.917969 116.316406 C 98.980469 116.5 98.070312 116.777344 97.183594 117.140625 C 96.300781 117.503906 95.460938 117.953125 94.664062 118.480469 C 93.871094 119.011719 93.132812 119.613281 92.457031 120.285156 C 91.78125 120.960938 91.175781 121.695312 90.644531 122.484375 C 90.113281 123.277344 89.664062 124.113281 89.296875 124.996094 C 88.929688 125.875 88.65625 126.785156 88.46875 127.71875 C 88.28125 128.652344 88.1875 129.597656 88.1875 130.550781 C 88.1875 130.867188 88.15625 131.183594 88.09375 131.492188 C 88.03125 131.804688 87.941406 132.105469 87.816406 132.402344 C 87.695312 132.695312 87.546875 132.972656 87.371094 133.238281 C 87.191406 133.5 86.992188 133.746094 86.765625 133.96875 C 86.539062 134.195312 86.292969 134.394531 86.027344 134.570312 C 85.765625 134.75 85.484375 134.898438 85.1875 135.019531 C 84.894531 135.140625 84.589844 135.234375 84.277344 135.292969 C 83.964844 135.355469 83.648438 135.386719 83.328125 135.386719 L 73.613281 135.386719 C 73.296875 135.386719 72.980469 135.355469 72.667969 135.292969 C 72.355469 135.234375 72.050781 135.140625 71.753906 135.019531 C 71.460938 134.898438 71.179688 134.75 70.914062 134.570312 C 70.648438 134.394531 70.40625 134.195312 70.179688 133.96875 C 69.953125 133.746094 69.753906 133.5 69.574219 133.238281 C 69.398438 132.972656 69.246094 132.695312 69.125 132.402344 C 69.003906 132.105469 68.910156 131.804688 68.847656 131.492188 C 68.789062 131.183594 68.757812 130.867188 68.757812 130.550781 C 68.757812 129.597656 68.664062 128.652344 68.476562 127.71875 C 68.289062 126.785156 68.011719 125.875 67.648438 124.996094 C 67.28125 124.113281 66.832031 123.277344 66.300781 122.484375 C 65.769531 121.695312 65.164062 120.960938 64.488281 120.285156 C 63.8125 119.613281 63.074219 119.011719 62.277344 118.480469 C 61.484375 117.953125 60.644531 117.503906 59.757812 117.140625 C 58.875 116.777344 57.964844 116.5 57.027344 116.316406 C 56.085938 116.128906 55.140625 116.035156 54.183594 116.035156 C 53.386719 116.035156 52.59375 115.957031 51.8125 115.804688 C 51.03125 115.648438 50.269531 115.417969 49.535156 115.113281 C 48.796875 114.8125 48.097656 114.4375 47.433594 113.996094 C 46.773438 113.554688 46.160156 113.054688 45.59375 112.492188 C 45.03125 111.929688 44.527344 111.320312 44.085938 110.660156 C 43.640625 110 43.265625 109.304688 42.960938 108.570312 C 42.65625 107.835938 42.425781 107.078125 42.269531 106.300781 C 42.113281 105.523438 42.039062 104.734375 42.039062 103.941406 L 42.039062 102.03125 C 42.035156 100.007812 42.511719 98.105469 43.46875 96.320312 C 44.429688 94.546875 45.75 93.09375 47.429688 91.96875 C 48.808594 91.054688 50.058594 89.996094 51.179688 88.785156 C 52.300781 87.570312 53.261719 86.246094 54.058594 84.800781 C 54.859375 83.359375 55.472656 81.84375 55.90625 80.253906 C 56.335938 78.664062 56.574219 77.042969 56.609375 75.398438 C 56.925781 75.710938 57.265625 75.976562 57.605469 76.269531 C 58.222656 76.75 58.871094 77.1875 59.550781 77.574219 L 59.867188 77.769531 C 60.53125 78.132812 61.21875 78.445312 61.929688 78.710938 L 62.34375 78.855469 C 63.082031 79.105469 63.835938 79.300781 64.601562 79.4375 L 64.941406 79.4375 C 65.746094 79.570312 66.554688 79.644531 67.371094 79.65625 C 69.433594 79.683594 71.421875 79.324219 73.34375 78.582031 C 75.265625 77.835938 76.972656 76.757812 78.472656 75.347656 C 79.941406 76.753906 81.621094 77.839844 83.511719 78.601562 C 85.398438 79.363281 87.363281 79.746094 89.402344 79.75 C 90.21875 79.742188 91.027344 79.667969 91.832031 79.535156 L 92.171875 79.535156 C 92.9375 79.394531 93.691406 79.203125 94.429688 78.953125 L 94.84375 78.808594 C 95.554688 78.542969 96.242188 78.230469 96.90625 77.863281 L 97.25 77.671875 C 97.929688 77.285156 98.578125 76.847656 99.191406 76.363281 C 99.53125 76.097656 99.847656 75.808594 100.164062 75.519531 C 100.195312 77.167969 100.425781 78.789062 100.851562 80.378906 C 101.28125 81.972656 101.894531 83.492188 102.691406 84.9375 C 103.488281 86.382812 104.445312 87.710938 105.566406 88.925781 C 106.691406 90.140625 107.941406 91.199219 109.320312 92.113281 C 110.160156 92.648438 110.917969 93.277344 111.601562 93.996094 C 112.285156 94.71875 112.871094 95.511719 113.355469 96.375 C 113.84375 97.242188 114.21875 98.152344 114.480469 99.109375 C 114.742188 100.066406 114.886719 101.039062 114.90625 102.03125 Z M 114.90625 103.941406 " fill-opacity="1" fill-rule="nonzero"/></g><path fill="#ffffff" d="M 84.035156 114.316406 C 83.664062 114.671875 83.261719 114.988281 82.828125 115.265625 C 82.394531 115.542969 81.941406 115.777344 81.464844 115.96875 C 80.984375 116.160156 80.496094 116.304688 79.988281 116.398438 C 79.484375 116.496094 78.972656 116.546875 78.460938 116.546875 C 77.945312 116.546875 77.4375 116.496094 76.929688 116.398438 C 76.425781 116.304688 75.933594 116.160156 75.457031 115.96875 C 74.980469 115.777344 74.523438 115.542969 74.089844 115.265625 C 73.660156 114.988281 73.257812 114.671875 72.886719 114.316406 C 72.652344 114.121094 72.390625 113.972656 72.105469 113.871094 C 71.816406 113.769531 71.515625 113.726562 71.210938 113.738281 C 70.90625 113.75 70.613281 113.816406 70.332031 113.9375 C 70.050781 114.0625 69.804688 114.230469 69.589844 114.445312 C 69.371094 114.660156 69.203125 114.90625 69.078125 115.1875 C 68.957031 115.464844 68.890625 115.757812 68.878906 116.0625 C 68.867188 116.367188 68.910156 116.664062 69.011719 116.949219 C 69.113281 117.238281 69.261719 117.496094 69.460938 117.730469 C 71.292969 119.574219 73.484375 120.742188 76.042969 121.238281 L 76.042969 128.128906 C 76.042969 128.453125 76.105469 128.761719 76.226562 129.054688 C 76.351562 129.351562 76.527344 129.613281 76.753906 129.839844 C 76.980469 130.066406 77.246094 130.242188 77.542969 130.367188 C 77.839844 130.488281 78.148438 130.550781 78.472656 130.550781 C 78.792969 130.550781 79.105469 130.488281 79.402344 130.367188 C 79.699219 130.242188 79.960938 130.066406 80.191406 129.839844 C 80.417969 129.613281 80.59375 129.351562 80.714844 129.054688 C 80.839844 128.761719 80.902344 128.453125 80.902344 128.128906 L 80.902344 121.238281 C 83.457031 120.75 85.648438 119.589844 87.484375 117.753906 C 87.683594 117.523438 87.832031 117.261719 87.933594 116.972656 C 88.035156 116.6875 88.078125 116.390625 88.066406 116.085938 C 88.054688 115.78125 87.988281 115.488281 87.863281 115.210938 C 87.742188 114.933594 87.574219 114.683594 87.355469 114.46875 C 87.140625 114.253906 86.890625 114.085938 86.613281 113.964844 C 86.332031 113.839844 86.039062 113.773438 85.734375 113.761719 C 85.425781 113.75 85.128906 113.796875 84.839844 113.894531 C 84.550781 113.996094 84.292969 114.144531 84.058594 114.34375 Z M 84.035156 114.316406 " fill-opacity="1" fill-rule="nonzero"/><path fill="#ffffff" d="M 61.46875 82.171875 C 61.148438 82.171875 60.835938 82.230469 60.539062 82.355469 C 60.242188 82.476562 59.980469 82.652344 59.75 82.878906 C 59.523438 83.105469 59.347656 83.367188 59.226562 83.664062 C 59.101562 83.960938 59.039062 84.269531 59.039062 84.589844 L 59.039062 89.425781 C 59.039062 89.746094 59.101562 90.054688 59.226562 90.351562 C 59.347656 90.648438 59.523438 90.910156 59.75 91.136719 C 59.980469 91.363281 60.242188 91.539062 60.539062 91.660156 C 60.835938 91.785156 61.148438 91.847656 61.46875 91.847656 C 61.792969 91.847656 62.101562 91.785156 62.398438 91.660156 C 62.695312 91.539062 62.960938 91.363281 63.1875 91.136719 C 63.414062 90.910156 63.589844 90.648438 63.714844 90.351562 C 63.835938 90.054688 63.898438 89.746094 63.898438 89.425781 L 63.898438 84.589844 C 63.898438 84.269531 63.835938 83.960938 63.714844 83.664062 C 63.589844 83.367188 63.414062 83.105469 63.1875 82.878906 C 62.960938 82.652344 62.695312 82.476562 62.398438 82.355469 C 62.101562 82.230469 61.792969 82.171875 61.46875 82.171875 Z M 61.46875 82.171875 " fill-opacity="1" fill-rule="nonzero"/><path fill="#ffffff" d="M 95.476562 82.171875 C 95.152344 82.171875 94.84375 82.230469 94.546875 82.355469 C 94.246094 82.476562 93.984375 82.652344 93.757812 82.878906 C 93.53125 83.105469 93.355469 83.367188 93.230469 83.664062 C 93.109375 83.960938 93.046875 84.269531 93.046875 84.589844 L 93.046875 89.425781 C 93.046875 89.746094 93.109375 90.054688 93.230469 90.351562 C 93.355469 90.648438 93.53125 90.910156 93.757812 91.136719 C 93.984375 91.363281 94.246094 91.539062 94.546875 91.660156 C 94.84375 91.785156 95.152344 91.847656 95.476562 91.847656 C 95.796875 91.847656 96.105469 91.785156 96.40625 91.660156 C 96.703125 91.539062 96.964844 91.363281 97.191406 91.136719 C 97.421875 90.910156 97.597656 90.648438 97.71875 90.351562 C 97.84375 90.054688 97.902344 89.746094 97.902344 89.425781 L 97.902344 84.589844 C 97.902344 84.269531 97.84375 83.960938 97.71875 83.664062 C 97.597656 83.367188 97.421875 83.105469 97.191406 82.878906 C 96.964844 82.652344 96.703125 82.476562 96.40625 82.355469 C 96.105469 82.230469 95.796875 82.171875 95.476562 82.171875 Z M 95.476562 82.171875 " fill-opacity="1" fill-rule="nonzero"/><g fill="#ffffff" fill-opacity="1"><g transform="translate(132.99669, 75.373173)"><g><path d="M 17.296875 -24.78125 C 15.285156 -24.78125 13.71875 -23.957031 12.59375 -22.3125 C 11.46875 -20.664062 10.90625 -18.394531 10.90625 -15.5 C 10.90625 -9.488281 13.191406 -6.484375 17.765625 -6.484375 C 19.148438 -6.484375 20.488281 -6.675781 21.78125 -7.0625 C 23.082031 -7.445312 24.390625 -7.910156 25.703125 -8.453125 L 25.703125 -1.296875 C 23.097656 -0.148438 20.144531 0.421875 16.84375 0.421875 C 12.125 0.421875 8.503906 -0.941406 5.984375 -3.671875 C 3.472656 -6.410156 2.21875 -10.367188 2.21875 -15.546875 C 2.21875 -18.785156 2.828125 -21.628906 4.046875 -24.078125 C 5.265625 -26.535156 7.019531 -28.421875 9.3125 -29.734375 C 11.601562 -31.054688 14.296875 -31.71875 17.390625 -31.71875 C 20.765625 -31.71875 23.992188 -30.984375 27.078125 -29.515625 L 24.484375 -22.859375 C 23.328125 -23.398438 22.171875 -23.851562 21.015625 -24.21875 C 19.867188 -24.59375 18.628906 -24.78125 17.296875 -24.78125 Z M 17.296875 -24.78125 "/></g></g></g><g fill="#ffffff" fill-opacity="1"><g transform="translate(173.160732, 75.373173)"><g><path d="M 22.5625 0 L 21.015625 -5.859375 L 10.859375 -5.859375 L 9.28125 0 L 0 0 L 10.203125 -31.390625 L 21.46875 -31.390625 L 31.796875 0 Z M 19.265625 -12.78125 L 17.921875 -17.921875 C 17.609375 -19.054688 17.226562 -20.53125 16.78125 -22.34375 C 16.332031 -24.15625 16.035156 -25.453125 15.890625 -26.234375 C 15.765625 -25.515625 15.507812 -24.316406 15.125 -22.640625 C 14.75 -20.972656 13.914062 -17.6875 12.625 -12.78125 Z M 19.265625 -12.78125 "/></g></g></g><g fill="#ffffff" fill-opacity="1"><g transform="translate(216.703948, 75.373173)"><g><path d="M 11.828125 -11.375 L 11.828125 0 L 3.375 0 L 3.375 -31.265625 L 13.625 -31.265625 C 22.125 -31.265625 26.375 -28.1875 26.375 -22.03125 C 26.375 -18.40625 24.601562 -15.601562 21.0625 -13.625 L 30.171875 0 L 20.59375 0 L 13.96875 -11.375 Z M 11.828125 -17.734375 L 13.40625 -17.734375 C 16.351562 -17.734375 17.828125 -19.035156 17.828125 -21.640625 C 17.828125 -23.796875 16.382812 -24.875 13.5 -24.875 L 11.828125 -24.875 Z M 11.828125 -17.734375 "/></g></g></g><g fill="#ffffff" fill-opacity="1"><g transform="translate(258.087065, 75.373173)"><g><path d="M 29.921875 -16.296875 C 29.921875 -11.078125 28.484375 -7.054688 25.609375 -4.234375 C 22.734375 -1.410156 18.695312 0 13.5 0 L 3.375 0 L 3.375 -31.265625 L 14.203125 -31.265625 C 19.222656 -31.265625 23.097656 -29.976562 25.828125 -27.40625 C 28.554688 -24.84375 29.921875 -21.140625 29.921875 -16.296875 Z M 21.15625 -16 C 21.15625 -18.863281 20.585938 -20.984375 19.453125 -22.359375 C 18.316406 -23.742188 16.59375 -24.4375 14.28125 -24.4375 L 11.828125 -24.4375 L 11.828125 -6.921875 L 13.703125 -6.921875 C 16.273438 -6.921875 18.160156 -7.664062 19.359375 -9.15625 C 20.554688 -10.644531 21.15625 -12.925781 21.15625 -16 Z M 21.15625 -16 "/></g></g></g><g fill="#ffffff" fill-opacity="1"><g transform="translate(301.972481, 75.373173)"><g><path d="M 23.828125 -9.5 C 23.828125 -7.5625 23.332031 -5.835938 22.34375 -4.328125 C 21.363281 -2.828125 19.945312 -1.660156 18.09375 -0.828125 C 16.238281 0.00390625 14.0625 0.421875 11.5625 0.421875 C 9.488281 0.421875 7.742188 0.273438 6.328125 -0.015625 C 4.921875 -0.304688 3.453125 -0.816406 1.921875 -1.546875 L 1.921875 -9.0625 C 3.535156 -8.238281 5.210938 -7.59375 6.953125 -7.125 C 8.691406 -6.664062 10.285156 -6.4375 11.734375 -6.4375 C 12.992188 -6.4375 13.914062 -6.648438 14.5 -7.078125 C 15.082031 -7.515625 15.375 -8.078125 15.375 -8.765625 C 15.375 -9.191406 15.253906 -9.566406 15.015625 -9.890625 C 14.785156 -10.210938 14.410156 -10.535156 13.890625 -10.859375 C 13.367188 -11.191406 11.984375 -11.863281 9.734375 -12.875 C 7.691406 -13.800781 6.160156 -14.695312 5.140625 -15.5625 C 4.117188 -16.4375 3.363281 -17.4375 2.875 -18.5625 C 2.382812 -19.6875 2.140625 -21.019531 2.140625 -22.5625 C 2.140625 -25.4375 3.1875 -27.679688 5.28125 -29.296875 C 7.375 -30.910156 10.253906 -31.71875 13.921875 -31.71875 C 17.160156 -31.71875 20.460938 -30.96875 23.828125 -29.46875 L 21.234375 -22.953125 C 18.304688 -24.285156 15.785156 -24.953125 13.671875 -24.953125 C 12.566406 -24.953125 11.765625 -24.757812 11.265625 -24.375 C 10.765625 -23.988281 10.515625 -23.515625 10.515625 -22.953125 C 10.515625 -22.335938 10.832031 -21.785156 11.46875 -21.296875 C 12.101562 -20.816406 13.828125 -19.929688 16.640625 -18.640625 C 19.328125 -17.429688 21.195312 -16.128906 22.25 -14.734375 C 23.300781 -13.347656 23.828125 -11.601562 23.828125 -9.5 Z M 23.828125 -9.5 "/></g></g></g><g fill="#ffffff" fill-opacity="1"><g transform="translate(132.659923, 117.604409)"><g><path d="M 17 0 L 10.609375 -22.515625 L 10.421875 -22.515625 C 10.710938 -18.679688 10.859375 -15.703125 10.859375 -13.578125 L 10.859375 0 L 3.375 0 L 3.375 -31.265625 L 14.625 -31.265625 L 21.15625 -9.0625 L 21.328125 -9.0625 L 27.71875 -31.265625 L 38.984375 -31.265625 L 38.984375 0 L 31.21875 0 L 31.21875 -13.703125 C 31.21875 -14.421875 31.226562 -15.210938 31.25 -16.078125 C 31.269531 -16.953125 31.367188 -19.082031 31.546875 -22.46875 L 31.34375 -22.46875 L 25.046875 0 Z M 17 0 "/></g></g></g><g fill="#ffffff" fill-opacity="1"><g transform="translate(198.312276, 117.604409)"><g><path d="M 29.953125 -31.265625 L 29.953125 -12.453125 C 29.953125 -8.359375 28.796875 -5.1875 26.484375 -2.9375 C 24.171875 -0.695312 20.832031 0.421875 16.46875 0.421875 C 12.207031 0.421875 8.929688 -0.664062 6.640625 -2.84375 C 4.347656 -5.019531 3.203125 -8.15625 3.203125 -12.25 L 3.203125 -31.265625 L 11.703125 -31.265625 L 11.703125 -12.921875 C 11.703125 -10.710938 12.113281 -9.109375 12.9375 -8.109375 C 13.757812 -7.109375 14.976562 -6.609375 16.59375 -6.609375 C 18.320312 -6.609375 19.570312 -7.101562 20.34375 -8.09375 C 21.125 -9.082031 21.515625 -10.703125 21.515625 -12.953125 L 21.515625 -31.265625 Z M 29.953125 -31.265625 "/></g></g></g><g fill="#ffffff" fill-opacity="1"><g transform="translate(254.768146, 117.604409)"><g><path d="M 3.375 0 L 3.375 -31.265625 L 11.828125 -31.265625 L 11.828125 -6.828125 L 23.859375 -6.828125 L 23.859375 0 Z M 3.375 0 "/></g></g></g><g fill="#ffffff" fill-opacity="1"><g transform="translate(303.567398, 117.604409)"><g><path d="M 21.9375 0 L 3.375 0 L 3.375 -31.265625 L 21.9375 -31.265625 L 21.9375 -24.484375 L 11.828125 -24.484375 L 11.828125 -19.5625 L 21.1875 -19.5625 L 21.1875 -12.78125 L 11.828125 -12.78125 L 11.828125 -6.890625 L 21.9375 -6.890625 Z M 21.9375 0 "/></g></g></g></svg>